<?xml version="1.0" encoding="UTF-8" standalone="no"?><!DOCTYPE svg PUBLIC "-//W3C//DTD SVG 1.1//EN" "http://www.w3.org/Graphics/SVG/1.1/DTD/svg11.dtd"><svg width="100%" height="100%" viewBox="0 0 804 236" version="1.1" xmlns="http://www.w3.org/2000/svg" xmlns:xlink="http://www.w3.org/1999/xlink" xml:space="preserve" xmlns:serif="http://www.serif.com/" style="fill-rule:evenodd;clip-rule:evenodd;stroke-linecap:round;stroke-linejoin:round;stroke-miterlimit:1.5;"><g id="MekuVan"><rect x="159.472" y="34.603" width="150.022" height="6.126" style="fill:#cd0000;"/><rect x="229.377" y="156.036" width="80.117" height="6.126" style="fill:#cd0000;"/><rect x="0" y="81.428" width="309.494" height="6.126" style="fill:#cd0000;"/><path d="M426.874,169.447c19.511,-0 31.309,15.258 31.309,33.284c0,18.026 -15.841,32.66 -35.352,32.66c-19.511,0 -35.351,-14.634 -35.351,-32.66c-0,-18.026 19.883,-33.284 39.394,-33.284Z" style="fill:#cd0000;"/><path d="M719.866,170.521c19.184,-0 29.44,15.033 29.44,32.757c0,17.724 -15.575,32.113 -34.76,32.113c-19.184,0 -34.759,-14.389 -34.759,-32.113c-0,-17.724 20.894,-32.757 40.079,-32.757Z" style="fill:#cd0000;"/><rect x="373.404" y="0" width="321.38" height="168.849" style="fill:#cd0000;"/><g><path d="M419.432,19.121l10.822,30.505l10.763,-30.505l11.4,0l-0,42.059l-8.709,0l-0,-11.497l0.868,-19.845l-11.371,31.342l-5.961,0l-11.342,-31.313l0.868,19.816l0,11.497l-8.68,0l0,-42.059l11.342,0Z" style="fill:#fff;fill-rule:nonzero;"/><path d="M485.344,42.953l-16.666,-0l-0,11.266l19.559,-0l-0,6.961l-28.239,0l-0,-42.059l28.181,0l0,7.02l-19.501,-0l-0,10.023l16.666,0l-0,6.789Z" style="fill:#fff;fill-rule:nonzero;"/><path d="M506.523,44.311l-4.514,4.853l0,12.016l-8.68,0l0,-42.059l8.68,0l0,19.065l3.82,-5.228l10.734,-13.837l10.677,0l-14.959,18.69l15.393,23.369l-10.33,0l-10.821,-16.869Z" style="fill:#fff;fill-rule:nonzero;"/><path d="M562.828,19.121l0,27.703c0,4.602 -1.442,8.242 -4.325,10.919c-2.884,2.677 -6.824,4.015 -11.82,4.015c-4.919,0 -8.825,-1.3 -11.718,-3.9c-2.893,-2.599 -4.369,-6.172 -4.427,-10.717l0,-28.02l8.68,0l0,27.76c0,2.754 0.661,4.762 1.982,6.023c1.322,1.262 3.149,1.892 5.483,1.892c4.88,0 7.359,-2.561 7.436,-7.683l0,-27.992l8.709,0Z" style="fill:#fff;fill-rule:nonzero;"/></g><g><path d="M423.049,91.607l-9.836,-0l0,6.649l11.544,-0l-0,4.108l-16.667,0l0,-24.822l16.633,-0l-0,4.142l-11.51,0l0,5.916l9.836,0l0,4.007Z" style="fill:#fff;fill-rule:nonzero;"/><path d="M432.885,98.256l10.877,-0l0,4.108l-16,0l0,-24.822l5.123,-0l-0,20.714Z" style="fill:#fff;fill-rule:nonzero;"/><path d="M461.658,91.607l-9.836,-0l0,6.649l11.544,-0l-0,4.108l-16.666,0l-0,-24.822l16.632,-0l-0,4.142l-11.51,0l0,5.916l9.836,0l0,4.007Z" style="fill:#fff;fill-rule:nonzero;"/><path d="M485.889,94.096c-0.193,2.671 -1.181,4.773 -2.962,6.308c-1.782,1.534 -4.13,2.301 -7.044,2.301c-3.188,0 -5.695,-1.071 -7.522,-3.213c-1.827,-2.143 -2.741,-5.084 -2.741,-8.823l0,-1.517c0,-2.387 0.421,-4.49 1.264,-6.308c0.842,-1.819 2.046,-3.214 3.611,-4.186c1.566,-0.971 3.384,-1.457 5.456,-1.457c2.869,-0 5.18,0.767 6.933,2.301c1.753,1.535 2.766,3.688 3.04,6.462l-5.123,-0c-0.125,-1.603 -0.572,-2.765 -1.341,-3.487c-0.768,-0.721 -1.938,-1.082 -3.509,-1.082c-1.708,-0 -2.985,0.611 -3.833,1.832c-0.849,1.222 -1.284,3.117 -1.307,5.686l0,1.875c0,2.683 0.407,4.643 1.221,5.882c0.814,1.239 2.098,1.858 3.851,1.858c1.582,0 2.763,-0.36 3.543,-1.082c0.78,-0.722 1.227,-1.839 1.341,-3.35l5.122,-0Z" style="fill:#fff;fill-rule:nonzero;"/><path d="M507.475,81.684l-7.616,0l-0,20.68l-5.123,0l-0,-20.68l-7.514,0l0,-4.142l20.253,-0l-0,4.142Z" style="fill:#fff;fill-rule:nonzero;"/><path d="M519.599,93.277l-4.082,0l0,9.087l-5.122,0l-0,-24.822l9.238,-0c2.937,-0 5.202,0.653 6.796,1.96c1.594,1.307 2.391,3.154 2.391,5.541c-0,1.694 -0.367,3.106 -1.102,4.237c-0.734,1.13 -1.847,2.031 -3.338,2.702l5.379,10.144l-0,0.238l-5.499,0l-4.661,-9.087Zm-4.082,-4.142l4.133,-0c1.286,-0 2.282,-0.327 2.988,-0.981c0.706,-0.653 1.059,-1.554 1.059,-2.702c-0,-1.17 -0.333,-2.091 -0.999,-2.762c-0.666,-0.67 -1.688,-1.006 -3.065,-1.006l-4.116,0l0,7.451Z" style="fill:#fff;fill-rule:nonzero;"/><path d="M553.136,90.516c0,2.443 -0.432,4.586 -1.297,6.427c-0.866,1.841 -2.104,3.262 -3.715,4.262c-1.61,1 -3.457,1.5 -5.541,1.5c-2.06,0 -3.899,-0.494 -5.515,-1.483c-1.617,-0.989 -2.869,-2.401 -3.757,-4.236c-0.888,-1.836 -1.338,-3.947 -1.349,-6.334l-0,-1.227c-0,-2.444 0.441,-4.595 1.323,-6.453c0.882,-1.859 2.129,-3.285 3.74,-4.28c1.611,-0.994 3.452,-1.491 5.524,-1.491c2.072,-0 3.913,0.497 5.524,1.491c1.611,0.995 2.858,2.421 3.74,4.28c0.882,1.858 1.323,4.003 1.323,6.435l0,1.109Zm-5.191,-1.126c0,-2.602 -0.467,-4.58 -1.4,-5.932c-0.934,-1.353 -2.266,-2.029 -3.996,-2.029c-1.719,-0 -3.045,0.667 -3.979,2.003c-0.933,1.335 -1.406,3.293 -1.417,5.873l-0,1.211c-0,2.534 0.467,4.5 1.4,5.898c0.934,1.398 2.277,2.097 4.03,2.097c1.719,0 3.04,-0.673 3.962,-2.02c0.922,-1.347 1.389,-3.31 1.4,-5.89l0,-1.211Z" style="fill:#fff;fill-rule:nonzero;"/><path d="M577.077,102.364l-5.123,0l-9.972,-16.332l-0,16.332l-5.123,0l-0,-24.822l5.123,-0l9.989,16.366l0,-16.366l5.106,-0l0,24.822Z" style="fill:#fff;fill-rule:nonzero;"/><rect x="581.876" y="77.542" width="5.123" height="24.823" style="fill:#fff;fill-rule:nonzero;"/><path d="M611.264,94.096c-0.194,2.671 -1.181,4.773 -2.963,6.308c-1.782,1.534 -4.13,2.301 -7.044,2.301c-3.188,0 -5.695,-1.071 -7.522,-3.213c-1.827,-2.143 -2.741,-5.084 -2.741,-8.823l0,-1.517c0,-2.387 0.421,-4.49 1.264,-6.308c0.842,-1.819 2.046,-3.214 3.611,-4.186c1.566,-0.971 3.384,-1.457 5.456,-1.457c2.869,-0 5.18,0.767 6.933,2.301c1.753,1.535 2.767,3.688 3.04,6.462l-5.123,-0c-0.125,-1.603 -0.572,-2.765 -1.341,-3.487c-0.768,-0.721 -1.938,-1.082 -3.509,-1.082c-1.707,-0 -2.985,0.611 -3.833,1.832c-0.848,1.222 -1.284,3.117 -1.307,5.686l0,1.875c0,2.683 0.407,4.643 1.221,5.882c0.814,1.239 2.098,1.858 3.851,1.858c1.582,0 2.764,-0.36 3.543,-1.082c0.78,-0.722 1.227,-1.839 1.341,-3.35l5.123,-0Z" style="fill:#fff;fill-rule:nonzero;"/></g><g><path d="M420.983,130.097c-0,-0.966 -0.342,-1.708 -1.025,-2.225c-0.683,-0.517 -1.912,-1.063 -3.688,-1.637c-1.776,-0.574 -3.182,-1.139 -4.218,-1.696c-2.823,-1.523 -4.235,-3.575 -4.235,-6.155c0,-1.341 0.379,-2.537 1.136,-3.588c0.757,-1.052 1.844,-1.873 3.261,-2.464c1.418,-0.591 3.008,-0.886 4.773,-0.886c1.776,-0 3.358,0.321 4.747,0.963c1.389,0.642 2.468,1.548 3.236,2.719c0.769,1.171 1.153,2.5 1.153,3.989l-5.123,0c-0,-1.136 -0.359,-2.02 -1.076,-2.651c-0.717,-0.63 -1.725,-0.946 -3.022,-0.946c-1.253,0 -2.226,0.264 -2.92,0.793c-0.695,0.528 -1.042,1.225 -1.042,2.088c-0,0.807 0.407,1.484 1.221,2.029c0.814,0.546 2.012,1.057 3.594,1.534c2.915,0.876 5.038,1.961 6.37,3.257c1.332,1.295 1.998,2.909 1.998,4.842c-0,2.148 -0.814,3.833 -2.442,5.054c-1.628,1.222 -3.819,1.833 -6.574,1.833c-1.913,0 -3.655,-0.349 -5.226,-1.048c-1.571,-0.699 -2.769,-1.657 -3.594,-2.873c-0.826,-1.216 -1.238,-2.626 -1.238,-4.228l5.14,-0c-0,2.739 1.639,4.109 4.918,4.109c1.218,-0 2.168,-0.248 2.851,-0.742c0.683,-0.494 1.025,-1.185 1.025,-2.071Z" style="fill:#fff;fill-rule:nonzero;"/><path d="M449.825,136.609l-5.123,0l-0,-10.638l-9.99,-0l0,10.638l-5.123,0l0,-24.823l5.123,0l0,10.059l9.99,0l-0,-10.059l5.123,0l-0,24.823Z" style="fill:#fff;fill-rule:nonzero;"/><path d="M474.722,124.76c-0,2.444 -0.433,4.586 -1.298,6.428c-0.865,1.841 -2.103,3.262 -3.714,4.262c-1.611,1 -3.458,1.5 -5.541,1.5c-2.061,0 -3.9,-0.494 -5.516,-1.483c-1.617,-0.989 -2.869,-2.401 -3.757,-4.237c-0.888,-1.835 -1.337,-3.946 -1.349,-6.333l0,-1.228c0,-2.443 0.441,-4.594 1.324,-6.453c0.882,-1.858 2.128,-3.284 3.739,-4.279c1.611,-0.994 3.452,-1.491 5.524,-1.491c2.072,-0 3.914,0.497 5.525,1.491c1.61,0.995 2.857,2.421 3.739,4.279c0.882,1.859 1.324,4.004 1.324,6.436l-0,1.108Zm-5.192,-1.125c0,-2.603 -0.466,-4.58 -1.4,-5.933c-0.933,-1.352 -2.265,-2.028 -3.996,-2.028c-1.719,-0 -3.045,0.667 -3.978,2.003c-0.934,1.335 -1.406,3.293 -1.418,5.873l0,1.21c0,2.535 0.467,4.501 1.401,5.899c0.933,1.398 2.276,2.097 4.03,2.097c1.719,0 3.039,-0.673 3.961,-2.02c0.922,-1.347 1.389,-3.31 1.4,-5.89l0,-1.211Z" style="fill:#fff;fill-rule:nonzero;"/><path d="M483.567,127.863l0,8.746l-5.123,0l0,-24.823l9.7,0c1.867,0 3.509,0.341 4.926,1.023c1.417,0.682 2.507,1.651 3.27,2.907c0.763,1.256 1.144,2.685 1.144,4.288c0,2.432 -0.834,4.35 -2.501,5.754c-1.668,1.403 -3.976,2.105 -6.925,2.105l-4.491,0Zm0,-4.143l4.577,0c1.354,0 2.387,-0.318 3.099,-0.954c0.711,-0.637 1.067,-1.546 1.067,-2.728c0,-1.216 -0.359,-2.199 -1.076,-2.949c-0.717,-0.751 -1.707,-1.137 -2.971,-1.16l-4.696,0l0,7.791Z" style="fill:#fff;fill-rule:nonzero;"/></g><path d="M803.466,109.313l-37.547,-29.135l-72.171,0l-0,88.885l109.718,-0l0,-59.75Z" style="fill:#cd0000;"/><path d="M747.038,42.725l-24.18,-18.838l-29.11,-10.487l-0,68.571l70.503,-0l-17.213,-39.246Z" style="fill:none;stroke:#d41a17;stroke-width:4.17px;"/><g><circle cx="596.72" cy="39.38" r="16.285" style="fill:none;stroke:#fff;stroke-width:4.17px;"/><g><path d="M604.244,44.488c0.658,-0.701 0.623,-1.805 -0.078,-2.463l-11.67,-10.958c-0.701,-0.658 -1.805,-0.623 -2.463,0.078l-2.385,2.54c-0.658,0.701 -0.624,1.805 0.077,2.463l11.671,10.958c0.701,0.658 1.804,0.623 2.462,-0.078l2.386,-2.54Z" style="fill:#fff;"/><path d="M599.843,46.4c0.68,0.68 1.784,0.68 2.464,-0l26.425,-26.425c0.68,-0.68 0.68,-1.784 0,-2.464l-2.464,-2.464c-0.68,-0.68 -1.784,-0.68 -2.464,0l-26.425,26.425c-0.68,0.68 -0.68,1.784 0,2.464l2.464,2.464Z" style="fill:#fff;"/></g></g></g></svg>